# xmcd
#
# Track frame offsets:
#	150
#	17371
#	34758
#	48960
#	64045
#	78090
#	96827
#	115911
#	133541
#	153552
#	169944
#	185409
#	205159
#	220562
#	241358
#	256055
#	276332
#	296135
#	311959
#
# Disc length: 4397 seconds
#
# Revision: 0
# Processed by: cddbd v1.5.2PL0 Copyright (c) Steve Scherf et al.
# Submitted via: EasyCDDAExtractor 12.0.1.1
#
DISCID=0a112b13
DTITLE=Smokie - Pop Hits
DYEAR=2000
DGENRE=Country
TTITLE0=Baby it's you
TTITLE1=Be My Baby
TTITLE2=Boat On The River
TTITLE3=Changing all the time
TTITLE4=Darlin'
TTITLE5=Garden Party
TTITLE6=Have you ever seen the rain
TTITLE7=Hungry Eyes
TTITLE8=I Feel Love
TTITLE9=I'd die for you
TTITLE10=If you think you know how to l
TTITLE11=No Matter What
TTITLE12=Only You
TTITLE13=Runaway Train
TTITLE14=San Francisco Bay
TTITLE15=Woman In Love
TTITLE16=Young hearts
TTITLE17=You're So Vain
TTITLE18=Stumbling In
EXTD=
EXTT0=
EXTT1=
EXTT2=
EXTT3=
EXTT4=
EXTT5=
EXTT6=
EXTT7=
EXTT8=
EXTT9=
EXTT10=
EXTT11=
EXTT12=
EXTT13=
EXTT14=
EXTT15=
EXTT16=
EXTT17=
EXTT18=
PLAYORDER=
